<svg width="50" height="48" viewBox="0 0 50 48" fill="none" xmlns="http://www.w3.org/2000/svg">
	<path d="M47.0167 16.9584C46.0441 16.8152 45.116 16.4514 44.3014 15.8941C43.4868 15.3368 42.8067 14.6003 42.3117 13.7395C41.8167 12.8788 41.5196 11.9159 41.4426 10.9226C41.3655 9.92928 41.5105 8.93115 41.8667 8.00252C42.0931 7.39542 42.1264 6.7317 41.962 6.10442C41.7977 5.47713 41.4438 4.91773 40.95 4.50464C38.7701 2.64868 36.2887 1.19068 33.6167 0.19566C33.0082 -0.0335052 32.3439 -0.0621377 31.7185 0.113842C31.093 0.289821 30.5383 0.661435 30.1333 1.17574C29.5238 1.96598 28.7448 2.60512 27.8554 3.04468C26.9659 3.48424 25.9895 3.71268 25 3.71268C24.0106 3.71268 23.0341 3.48424 22.1447 3.04468C21.2552 2.60512 20.4762 1.96598 19.8667 1.17574C19.4617 0.661435 18.907 0.289821 18.2815 0.113842C17.6561 -0.0621377 16.9918 -0.0335052 16.3834 0.19566C13.9161 1.1143 11.6093 2.42632 9.55003 4.08219C9.03094 4.49884 8.65704 5.07303 8.48309 5.7207C8.30915 6.36838 8.34429 7.0555 8.58336 7.68146C8.96795 8.63465 9.12685 9.66597 9.04732 10.6927C8.96778 11.7194 8.65202 12.7129 8.12536 13.5935C7.59871 14.4742 6.87582 15.2174 6.01469 15.7636C5.15355 16.3098 4.17814 16.6438 3.1667 16.7388C2.51005 16.81 1.89329 17.093 1.40722 17.5463C0.921155 17.9995 0.591469 18.5991 0.466702 19.2566C0.156365 20.8141 3.60673e-05 22.399 3.60673e-05 23.988C-0.00224492 25.3182 0.10367 26.6464 0.316703 27.959C0.422727 28.6376 0.74628 29.2619 1.23734 29.7353C1.72839 30.2087 2.3596 30.505 3.03337 30.5782C4.06702 30.6765 5.06241 31.0245 5.93621 31.5929C6.81001 32.1614 7.5368 32.9337 8.05575 33.8454C8.5747 34.7571 8.87071 35.7815 8.91901 36.833C8.96731 37.8845 8.76649 38.9324 8.33336 39.889C8.04991 40.5112 7.9796 41.2117 8.13359 41.879C8.28759 42.5464 8.65707 43.1425 9.18336 43.5727C11.3502 45.395 13.8076 46.8293 16.45 47.8141C16.7879 47.9328 17.1425 47.9955 17.5 48C17.9903 47.9989 18.4732 47.8787 18.9082 47.6493C19.3432 47.42 19.7176 47.0883 20 46.682C20.594 45.8045 21.3903 45.0872 22.3197 44.5925C23.2492 44.0978 24.2836 43.8406 25.3334 43.8431C26.3504 43.8444 27.3532 44.0865 28.2617 44.55C29.1703 45.0135 29.9595 45.6857 30.5667 46.513C30.9705 47.0634 31.5426 47.4629 32.1937 47.6493C32.8448 47.8358 33.5385 47.7987 34.1667 47.5438C36.5828 46.5579 38.8322 45.1952 40.8333 43.5051C41.336 43.0838 41.694 42.5116 41.8557 41.8709C42.0174 41.2303 41.9746 40.5541 41.7333 39.9397C41.3413 38.9988 41.1704 37.9783 41.2341 36.959C41.2977 35.9396 41.5942 34.9492 42.1001 34.0659C42.606 33.1826 43.3075 32.4307 44.1492 31.8694C44.9908 31.3081 45.9497 30.9528 46.95 30.8317C47.5986 30.7407 48.2019 30.4428 48.6723 29.981C49.1428 29.5192 49.456 28.9175 49.5667 28.2632C49.8343 26.8537 49.9793 25.4232 50 23.988C50.0003 22.4742 49.8608 20.9637 49.5833 19.4762C49.4708 18.8363 49.1622 18.2486 48.7015 17.7966C48.2407 17.3446 47.6512 17.0514 47.0167 16.9584ZM33.3333 23.988C33.3333 25.659 32.8446 27.2926 31.9289 28.682C31.0132 30.0714 29.7118 31.1544 28.189 31.7938C26.6663 32.4333 24.9908 32.6006 23.3743 32.2746C21.7578 31.9486 20.2729 31.1439 19.1075 29.9623C17.942 28.7807 17.1484 27.2753 16.8268 25.6363C16.5053 23.9974 16.6703 22.2986 17.301 20.7547C17.9318 19.2109 18.9999 17.8913 20.3703 16.9629C21.7407 16.0345 23.3518 15.539 25 15.539C27.2102 15.539 29.3298 16.4292 30.8926 18.0137C32.4554 19.5982 33.3333 21.7472 33.3333 23.988Z" fill="white" />
</svg>
